# xmcd
#
# Track frame offsets:
#	150
#	12137
#	23375
#	36952
#	51492
#	64032
#	76302
#	92180
#	108807
#	120675
#	133755
#	148957
#	160405
#	175685
#	188832
#	201177
#	216375
#
# Disc length: 3187 seconds
#
# Revision: 3
# Processed by: cddbd v1.5.1PL0 Copyright (c) Steve Scherf et al.
# Submitted via: audiograbber 1.83.01
#
DISCID=ef0c7111
DTITLE=Larry Gatlin and The Gatlin Brothers - 17 Greatest Hits
DYEAR=1985
DGENRE=Country
TTITLE0=Broken Lady
TTITLE1=Night Time Magic
TTITLE2=Sweet Becky Walker
TTITLE3=I Just Wish You Were Someone I Love
TTITLE4=I Don't Wanna Cry
TTITLE5=Statues Without Hearts
TTITLE6=Love Is Just A Game
TTITLE7=Denver
TTITLE8=All The Gold In California
TTITLE9=Almost Called Her Baby By Mistake
TTITLE10=She Used To Sing On Sunday
TTITLE11=What Are We Doin' Lonesome
TTITLE12=Sure Feels Like Love
TTITLE13=Houston (Means I'm One Day Closer To You)
TTITLE14=Take Me To Your Lovin' Place
TTITLE15=Taking Somebody With Me When I Fall
TTITLE16=Midnight Choir (Mogen David)
EXTD=
EXTT0=
EXTT1=
EXTT2=
EXTT3=
EXTT4=
EXTT5=
EXTT6=
EXTT7=
EXTT8=
EXTT9=
EXTT10=
EXTT11=
EXTT12=
EXTT13=
EXTT14=
EXTT15=
EXTT16=
PLAYORDER=
